# xmcd CD database file
#
# Track frame offsets:
#	150
#	22527
#	48482
#
# Disc length: 942 seconds
#
# Revision: 0
# Processed by: cddbd v1.5.1PL0 Copyright (c) Steve Scherf et al.
# Submitted via: CDex 1.51
#
DISCID=1503ac03
DTITLE=The Gospellers - 待ちきれない
DYEAR=1996
DGENRE=JPop
TTITLE0=待ちきれない
TTITLE1=AIR MAIL
TTITLE2=待ちきれない -no lead vocal-
EXTD=YEAR: 1996
EXTT0=
EXTT1=
EXTT2=
PLAYORDER=
